HIERARCHY
ROOT Hips
{
  OFFSET -134.259 10.5245 112.805
  CHANNELS 6 Xposition Yposition Zposition Zrotation Xrotation Yrotation
  JOINT ToSpine
  {
    OFFSET -2.69724 7.43032 -0.144315
    CHANNELS 3 Zrotation Xrotation Yrotation
    JOINT Spine
    {
      OFFSET -0.0310711 10.7595 1.96963
      CHANNELS 3 Zrotation Xrotation Yrotation
      JOINT Spine1
      {
        OFFSET 19.9056 3.91189 0.764692
        CHANNELS 3 Zrotation Xrotation Yrotation
        JOINT Neck
        {
          OFFSET 25.9749 7.03908 -0.130764
          CHANNELS 3 Zrotation Xrotation Yrotation
          JOINT Head
          {
            OFFSET 9.52751 0.295786 -0.907742
            CHANNELS 3 Zrotation Xrotation Yrotation
            End Site
            {
              OFFSET 16.4037 0.713936 2.7358
            }
          }
        }
        JOINT LeftShoulder
        {
          OFFSET 17.7449 4.33886 11.7777
          CHANNELS 3 Zrotation Xrotation Yrotation
          JOINT LeftArm
          {
            OFFSET 0.911315 1.27913 9.80584
            CHANNELS 3 Zrotation Xrotation Yrotation
            JOINT LeftForeArm
            {
              OFFSET 28.6126 1.18197 -3.53199
              CHANNELS 3 Zrotation Xrotation Yrotation
              JOINT LeftHand
              {
                OFFSET 27.5088 0.0218783 0.327423
                CHANNELS 3 Zrotation Xrotation Yrotation
                End Site
                {
                  OFFSET 18.6038 -0.000155887 0.382096
                }
              }
            }
          }
        }
        JOINT RightShoulder
        {
          OFFSET 17.1009 2.89543 -12.2328
          CHANNELS 3 Zrotation Xrotation Yrotation
          JOINT RightArm
          {
            OFFSET 1.4228 0.178766 -10.211
            CHANNELS 3 Zrotation Xrotation Yrotation
            JOINT RightForeArm
            {
              OFFSET 28.733 1.87905 2.64907
              CHANNELS 3 Zrotation Xrotation Yrotation
              JOINT RightHand
              {
                OFFSET 27.4588 0.290562 -0.101845
                CHANNELS 3 Zrotation Xrotation Yrotation
                End Site
                {
                  OFFSET 17.8396 -0.255518 -0.000602873
                }
              }
            }
          }
        }
      }
    }
  }
  JOINT LeftUpLeg
  {
    OFFSET -5.61296 -2.22332 -10.2353
    CHANNELS 3 Zrotation Xrotation Yrotation
    JOINT LeftLeg
    {
      OFFSET 2.56703 -44.7417 -7.93097
      CHANNELS 3 Zrotation Xrotation Yrotation
      JOINT LeftFoot
      {
        OFFSET 3.16933 -46.5642 -3.96578
        CHANNELS 3 Zrotation Xrotation Yrotation
        JOINT LeftToeBase
        {
          OFFSET 0.346054 -6.02161 12.8035
          CHANNELS 3 Zrotation Xrotation Yrotation
          End Site
          {
            OFFSET 0.134235 -1.35082 5.13018
          }
        }
      }
    }
  }
  JOINT RightUpLeg
  {
    OFFSET -5.7928 -1.72406 10.6446
    CHANNELS 3 Zrotation Xrotation Yrotation
    JOINT RightLeg
    {
      OFFSET -2.57161 -44.7178 -7.85259
      CHANNELS 3 Zrotation Xrotation Yrotation
      JOINT RightFoot
      {
        OFFSET -3.10148 -46.5936 -4.03391
        CHANNELS 3 Zrotation Xrotation Yrotation
        JOINT RightToeBase
        {
          OFFSET -0.0828122 -6.13587 12.8035
          CHANNELS 3 Zrotation Xrotation Yrotation
          End Site
          {
            OFFSET -0.131328 -1.35082 5.13018
          }
        }
      }
    }
  }
}
MOTION
Frames:	18
Frame Time:	0.0333333
-134.246 10.5463 112.977 12.0957 16.6427 -91.3851 -70.1915 0 88.8779 86.7117 68.9627 -1.35533 -13.6421 17.0783 7.28689 -165.401 23.0967 -172.171 -160.958 64.0153 -158.415 0.963477 -10.7477 -14.788 -145.094 2.14446 -129.155 19.6313 0.761729 -88.2591 -5.00575 0.374118 -7.33689 -1.11699 -12.5002 -2.01317 -140.969 -9.7111 129.641 11.2351 -0.852445 90.1657 14.2356 -0.464679 -4.25695 -49.8954 5.85493 88.4165 -1.63459 33.9319 -4.34594 -0.0540506 -10.2178 -0.853294 -35.5514 -49.2092 -28.1302 -56.1421 -12.183 81.9686 1.65948 35.0154 12.6483 -5.59145 -11.0533 1.10125 -5.99594 -42.129 8.86003 
-134.242 10.5376 112.965 12.1152 16.638 -91.3666 -70.1915 0 88.8779 86.7099 68.978 -1.31676 -13.5023 17.1271 7.20715 -163.351 23.3034 -173.535 -159.773 63.9287 -159.369 0.96736 -10.684 -14.6473 -145.212 2.39131 -129.106 19.6645 0.746853 -88.3092 -5.07039 0.371296 -7.34407 -1.12981 -12.6846 -1.93431 -141.113 -9.6817 129.607 11.1357 -0.842367 90.252 14.2687 -0.460625 -4.21355 -49.8506 5.85562 88.3661 -1.63209 34.0211 -4.27034 -0.068997 -10.2333 -0.853964 -35.6602 -49.1308 -28.4519 -56.1658 -12.058 82.1558 1.61753 34.9814 12.3491 -5.57743 -11.1484 1.10312 -5.93877 -42.0891 9.05493 
-134.252 10.547 112.97 12.1385 16.5999 -91.3422 -70.1915 0 88.8779 86.5807 68.9438 -1.14423 -13.2095 17.1625 7.03853 -161.485 23.2563 -174.333 -159.124 63.7151 -158.984 0.971003 -10.6119 -14.5933 -145.367 2.38442 -129.227 19.6034 0.746089 -88.3075 -5.04859 0.369463 -7.30525 -1.11819 -12.6404 -1.87197 -141.324 -9.61377 129.496 11.057 -0.840451 90.2872 14.2945 -0.461618 -4.21431 -49.8939 5.86036 88.3083 -1.62879 33.9842 -4.25727 -0.0880404 -10.2378 -0.853705 -35.6597 -49.148 -28.4235 -56.2085 -12.0905 82.0052 1.62798 34.9742 12.4485 -5.61427 -11.0881 1.10262 -5.92533 -42.2166 9.16611 
-134.257 10.5553 112.967 12.147 16.5801 -91.3612 -70.1915 0 88.8779 86.5392 68.9472 -1.10499 -13.0318 17.1912 6.97338 -160.28 23.2828 -175.179 -157.828 63.6218 -159.518 0.975109 -10.5012 -14.8025 -145.48 2.25698 -129.531 19.5057 0.753529 -88.2767 -4.98833 0.368249 -7.2749 -1.14605 -12.7034 -2.06842 -141.467 -9.68963 129.308 10.9314 -0.82091 90.449 14.3548 -0.478413 -4.33627 -49.9317 5.79676 88.2277 -1.62012 33.9461 -4.1882 -0.137205 -10.2695 -0.854561 -35.6705 -49.1925 -28.3722 -56.2293 -12.1322 81.968 1.64066 34.9848 12.5315 -5.65797 -11.0816 1.10358 -5.96628 -42.1365 8.97461 
-134.257 10.5428 112.962 12.1514 16.5665 -91.3391 -70.1915 0 88.8779 86.7479 68.973 -1.21536 -12.9631 17.2486 6.89605 -159.314 23.2748 -174.935 -158.56 63.6026 -157.927 0.982366 -10.3383 -15.0456 -145.587 2.38054 -129.865 19.5152 0.759435 -88.2583 -5.06872 0.366471 -7.30539 -1.20296 -12.9297 -2.34891 -141.582 -9.96098 129.02 10.893 -0.799517 90.6032 14.3526 -0.474139 -4.30644 -49.8904 5.85314 88.3017 -1.63733 34.0548 -4.30463 -0.13508 -10.3967 -0.864188 -35.612 -49.1045 -28.4064 -56.2761 -12.1268 81.8937 1.62987 34.9323 12.5504 -5.6765 -11.044 1.10319 -5.97306 -42.2609 9.00927 
-134.255 10.5601 112.953 12.1631 16.5423 -91.3666 -70.1915 0 88.8779 86.6425 68.9569 -1.15757 -12.7366 17.2912 6.74607 -158.577 23.1428 -175.749 -157.327 63.3961 -158.764 0.98438 -10.3126 -14.742 -145.753 2.50109 -129.76 19.4991 0.767223 -88.2319 -5.05486 0.365644 -7.32229 -1.16379 -12.9744 -1.94249 -141.79 -9.72234 129.15 10.7593 -0.792867 90.6968 14.3825 -0.474895 -4.32212 -49.921 5.82618 88.2973 -1.62677 34.0177 -4.21529 -0.070208 -10.2786 -0.857302 -35.658 -48.9805 -28.6879 -56.2825 -12.1203 82.0028 1.6255 34.9475 12.4435 -5.61798 -11.18 1.10484 -5.8776 -42.007 9.24506 
-134.253 10.5582 112.946 12.1789 16.5316 -91.3291 -70.1915 0 88.8779 86.7113 68.9903 -1.14748 -12.645 17.3366 6.72836 -158.293 23.2417 -176.05 -156.904 63.487 -158.669 0.982597 -10.3452 -14.8218 -145.819 2.52793 -129.851 19.4875 0.763665 -88.2426 -5.05778 0.365093 -7.28708 -1.22576 -13.09 -2.38388 -141.873 -9.97239 128.716 10.7386 -0.77462 90.8267 14.4047 -0.476215 -4.31693 -49.9132 5.8461 88.2495 -1.63304 34.049 -4.26674 -0.102466 -10.3532 -0.861888 -35.573 -49.0314 -28.4524 -56.3016 -12.1111 81.9287 1.62104 34.9501 12.5354 -5.55864 -11.1723 1.10321 -5.85155 -41.9715 9.32597 
-134.255 10.5594 112.944 12.1862 16.5229 -91.3281 -70.1915 0 88.8779 86.5353 68.9646 -1.02254 -12.4632 17.3315 6.66955 -158.257 23.0563 -177.054 -154.141 63.1481 -161.863 0.988619 -10.2239 -14.7309 -145.922 2.62276 -129.913 19.4691 0.758078 -88.2592 -5.08592 0.36469 -7.25953 -1.17976 -13.1001 -1.95577 -142.026 -9.71181 128.971 10.6322 -0.779423 90.8083 14.4237 -0.474243 -4.28112 -49.9444 5.85661 88.2655 -1.63155 33.994 -4.28076 -0.0799267 -10.3358 -0.861278 -35.5881 -48.957 -28.5987 -56.3155 -12.1451 81.8372 1.6308 34.9379 12.656 -5.55914 -11.0469 1.10025 -5.9205 -42.139 9.14716 
-134.255 10.5662 112.944 12.1926 16.5152 -91.3497 -70.1915 0 88.8779 86.3505 68.9543 -0.940882 -12.3192 17.3218 6.65964 -158.809 22.6662 -176.876 -154.593 62.8274 -161.438 0.989442 -10.217 -14.441 -146 2.67269 -129.663 19.4491 0.754762 -88.27 -4.99928 0.365249 -7.28296 -1.1247 -13.034 -1.52101 -142.179 -9.40342 129.166 10.5349 -0.777502 90.8541 14.4191 -0.473901 -4.28063 -49.9589 5.83119 88.264 -1.62946 33.9792 -4.2669 -0.0627862 -10.2935 -0.858642 -35.5738 -48.9384 -28.6024 -56.3253 -12.1463 81.8735 1.62283 34.9281 12.5468 -5.66916 -11.1784 1.10607 -5.85402 -41.9142 9.28953 
-134.243 10.5554 112.945 12.1773 16.5379 -91.3353 -70.1915 0 88.8779 86.3032 68.9605 -0.832857 -12.2771 17.3529 6.60489 -158.921 22.3385 -176.508 -154.7 62.5227 -161.307 0.985778 -10.3109 -14.2483 -146.079 2.79063 -129.437 19.4561 0.71275 -88.4053 -5.10845 0.364969 -7.19213 -1.11087 -12.9675 -1.46176 -142.235 -9.16889 129.09 10.3866 -0.76174 90.9872 14.5068 -0.48761 -4.36832 -49.888 5.81034 88.1854 -1.62816 34.0885 -4.19386 -0.0729609 -10.4451 -0.869646 -35.5162 -48.8309 -28.6698 -56.293 -12.1126 81.9325 1.6203 34.9466 12.4577 -5.62073 -11.2295 1.10608 -5.81106 -41.8252 9.40959 
-134.258 10.5654 112.948 12.1923 16.5419 -91.3564 -70.1915 0 88.8779 86.2364 68.9941 -0.766692 -12.2123 17.4069 6.55354 -158.377 21.5301 -177.177 -151.184 61.4882 -164.297 0.978663 -10.4746 -14.278 -146.15 2.69921 -129.418 19.4943 0.742756 -88.3105 -5.06866 0.365706 -7.28287 -1.10875 -12.9154 -1.49514 -142.345 -9.07967 128.906 10.333 -0.75782 91.0548 14.4876 -0.486628 -4.36573 -49.9121 5.79417 88.1758 -1.61676 34.0142 -4.11371 -0.0470814 -10.2592 -0.856569 -35.6002 -48.7729 -28.9158 -56.3145 -12.1381 81.878 1.62892 34.8975 12.5473 -5.8053 -11.1453 1.10862 -5.9466 -41.9642 8.96478 
-134.259 10.5745 112.951 12.2053 16.5097 -91.3591 -70.1915 0 88.8779 86.4006 69.0166 -0.883465 -12.2095 17.4495 6.50993 -158.245 19.4727 -178.206 -145.648 58.7403 -170.21 0.969965 -10.656 -14.4078 -146.201 2.52759 -129.394 19.4868 0.7259 -88.3651 -5.0663 0.366543 -7.27162 -1.10802 -12.8333 -1.57344 -142.403 -8.88166 128.677 10.1684 -0.732165 91.319 14.5611 -0.511821 -4.55024 -49.9598 5.78852 88.1902 -1.62333 33.9785 -4.2003 -0.10467 -10.2772 -0.856134 -35.5879 -48.9025 -28.6856 -56.3324 -12.1153 81.9416 1.61494 34.911 12.4681 -5.61996 -11.1625 1.10449 -5.87054 -41.8818 9.21203 
-134.242 10.5727 112.955 12.1932 16.5403 -91.3589 -70.1915 0 88.8779 86.3301 69.0561 -0.750129 -12.2042 17.5209 6.45854 -158.257 16.124 -177.676 -141.076 54.6251 -174.029 0.954488 -11.0142 -14.365 -146.283 2.35783 -129.15 19.5097 0.710401 -88.4168 -5.09777 0.367364 -7.28537 -1.08645 -12.7427 -1.46484 -142.473 -8.59852 128.506 10.0114 -0.698746 91.6198 14.5821 -0.53313 -4.71805 -49.9021 5.81242 88.27 -1.63807 34.0429 -4.3219 -0.110893 -10.3464 -0.861114 -35.5319 -48.9874 -28.4478 -56.2701 -12.1244 81.9439 1.61009 34.9478 12.4574 -5.67465 -11.1297 1.10506 -5.88573 -42.0041 9.21329 
-134.256 10.5913 112.957 12.2027 16.5546 -91.3827 -70.1915 0 88.8779 86.5127 69.1492 -0.753916 -12.3159 17.6988 6.27986 -159.799 12.0435 -176.676 -139.145 49.9216 -176.49 0.930696 -11.4881 -14.6016 -146.221 2.01187 -129.173 19.5714 0.737177 -88.3336 -5.01387 0.369048 -7.35778 -1.12028 -12.6606 -1.87085 -142.514 -8.70288 127.897 10.0101 -0.679208 91.839 14.4572 -0.537986 -4.79746 -49.8924 5.75251 88.1772 -1.62275 34.0085 -4.17926 -0.126194 -10.2712 -0.854998 -35.6221 -49.0055 -28.5828 -56.2474 -12.1714 81.929 1.64027 34.9677 12.5243 -5.73487 -11.1875 1.10784 -5.88614 -41.8139 9.12034 
-134.254 10.5766 112.959 12.2598 16.5847 -91.3701 -70.1915 0 88.8779 86.7372 69.2402 -0.745734 -12.5809 17.8826 6.11838 -161.41 7.89411 -176.627 -136.715 44.704 -179.952 0.89346 -12.0977 -15.0738 -146.032 1.60466 -129.339 19.6429 0.691997 -88.4859 -5.11839 0.369927 -7.23144 -1.15048 -12.5989 -2.2222 -142.351 -8.51652 127.189 9.91403 -0.645797 92.1457 14.5283 -0.552048 -4.88977 -49.748 5.875 88.3934 -1.65383 34.1809 -4.41465 -0.0372371 -10.3728 -0.865316 -35.7124 -48.8527 -28.9912 -56.2094 -12.2416 81.7459 1.65186 35.0207 12.6152 -5.63974 -11.1518 1.10474 -5.85323 -41.9981 9.33176 
-134.296 10.597 112.958 12.3539 16.5269 -91.3924 -70.1915 0 88.8779 86.9519 69.2619 -0.941652 -12.7857 17.9462 6.02965 -164.866 3.2177 -172.107 -141.877 41.2198 -177.804 0.857021 -12.7251 -15.2551 -145.86 1.09385 -129.165 19.6566 0.633172 -88.6717 -5.11269 0.371687 -7.0704 -1.13246 -12.2314 -2.46845 -142.16 -8.14605 126.569 9.87584 -0.640505 92.2211 14.6776 -0.560038 -4.90526 -49.8104 5.81686 88.2668 -1.64819 34.1134 -4.38918 -0.0875018 -10.2716 -0.856249 -35.7108 -48.9161 -28.8867 -56.3238 -12.3352 81.5038 1.67558 34.9577 12.8805 -5.6728 -11.0314 1.10281 -5.98945 -42.1913 8.91501 
-134.325 10.5909 112.955 12.4671 16.4758 -91.3697 -70.1915 0 88.8779 87.0965 69.2676 -1.02198 -13.0035 18.0041 5.92334 -167.743 -0.215906 -171.025 -143.064 38.0569 -178.068 0.832524 -13.2074 -15.241 -145.592 0.929534 -129.079 19.8043 0.644299 -88.6443 -5.15901 0.373134 -6.9984 -1.09886 -11.8534 -2.5829 -141.945 -7.77032 126.088 9.87438 -0.641026 92.222 14.7458 -0.560695 -4.89785 -49.8327 5.82404 88.1724 -1.64272 34.098 -4.33902 -0.0875435 -10.2307 -0.853195 -35.8554 -48.8206 -29.3018 -56.4529 -12.2371 81.571 1.63059 34.8752 12.735 -5.41317 -11.0847 1.09753 -5.91129 -42.0851 9.15695 
-134.321 10.5813 112.947 12.5218 16.4388 -91.2751 -70.1915 0 88.8779 87.6304 69.2961 -1.44366 -13.4917 18.0097 6.02347 -170.221 -2.55815 -169.351 -145.03 36.3631 -177.458 0.791617 -13.6759 -15.751 -145.221 0.426763 -129.222 19.9008 0.640627 -88.6613 -5.1514 0.375424 -6.94191 -1.07243 -11.4235 -2.84837 -141.618 -7.5643 125.499 9.95716 -0.619725 92.3828 14.7187 -0.566504 -4.96766 -49.793 5.89129 88.0822 -1.64796 34.2159 -4.33543 -0.109781 -10.2675 -0.855238 -35.9441 -48.8369 -29.4359 -56.4905 -12.2269 81.3549 1.62934 34.9027 12.6745 -5.25667 -11.132 1.09482 -5.69133 -42.2198 10.0401 
